<svg width="90" height="90" viewBox="0 0 90 90" fill="none" xmlns="http://www.w3.org/2000/svg">
<path d="M33.75 61.875C31.125 61.875 28.9062 60.9688 27.0937 59.1563C25.2812 57.3438 24.375 55.125 24.375 52.5C24.375 49.875 25.2812 47.6563 27.0937 45.8438C28.9062 44.0313 31.125 43.125 33.75 43.125C36.375 43.125 38.5938 44.0313 40.4063 45.8438C42.2188 47.6563 43.125 49.875 43.125 52.5C43.125 55.125 42.2188 57.3438 40.4063 59.1563C38.5938 60.9688 36.375 61.875 33.75 61.875ZM18.75 82.5C16.6875 82.5 14.9219 81.7656 13.4531 80.2969C11.9844 78.8281 11.25 77.0625 11.25 75V22.5C11.25 20.4375 11.9844 18.6719 13.4531 17.2031C14.9219 15.7344 16.6875 15 18.75 15H22.5V7.5H30V15H60V7.5H67.5V15H71.25C73.3125 15 75.0781 15.7344 76.5469 17.2031C78.0156 18.6719 78.75 20.4375 78.75 22.5V75C78.75 77.0625 78.0156 78.8281 76.5469 80.2969C75.0781 81.7656 73.3125 82.5 71.25 82.5H18.75ZM18.75 75H71.25V37.5H18.75V75Z" fill="#E7E0EC"/>
</svg>
